<svg width="30" height="30" viewBox="0 0 30 30" fill="none" xmlns="http://www.w3.org/2000/svg">
<circle cx="15" cy="15" r="15" fill="url(#paint0_linear_904_607)"/>
<path d="M11.4 9C12.8322 9 14.2057 9.63192 15.2184 10.7568C16.2311 11.8816 16.8 13.4072 16.8 14.9979C16.8 16.5887 16.2311 18.1143 15.2184 19.2391C14.2057 20.3639 12.8322 20.9959 11.4 20.9959C9.96783 20.9959 8.59432 20.3639 7.58162 19.2391C6.56893 18.1143 6 16.5887 6 14.9979C6 13.4072 6.56893 11.8816 7.58162 10.7568C8.59432 9.63192 9.96783 9 11.4 9ZM19.5 9.99965C20.85 9.99965 21.75 12.2379 21.75 14.9979C21.75 17.758 20.85 19.9962 19.5 19.9962C18.15 19.9962 17.25 17.758 17.25 14.9979C17.25 12.2379 18.15 9.99965 19.5 9.99965ZM23.1 10.4995C23.442 10.4995 23.7408 11.3262 23.892 12.7447L23.9343 13.1876L23.9514 13.4225L23.9784 13.9163L23.9874 14.1752L23.9982 14.716L24 14.9979L23.9982 15.2798L23.9874 15.8206L23.9784 16.0806L23.9514 16.5734L23.9334 16.8083L23.8929 17.2511C23.7408 18.6707 23.4429 19.4964 23.1 19.4964C22.758 19.4964 22.4592 18.6697 22.308 17.2511L22.2657 16.8083C22.2595 16.73 22.2538 16.6517 22.2486 16.5734L22.2216 16.0796C22.2181 15.9933 22.2151 15.907 22.2126 15.8206L22.2018 15.2798V14.716L22.2126 14.1752L22.2216 13.9153L22.2486 13.4225L22.2666 13.1876L22.3071 12.7447C22.4592 11.3252 22.7571 10.4995 23.1 10.4995Z" fill="white"/>
<defs>
<linearGradient id="paint0_linear_904_607" x1="0.625" y1="4.55357" x2="31.182" y2="6.42613" gradientUnits="userSpaceOnUse">
<stop stop-color="#9B51E0"/>
<stop offset="1" stop-color="#3081ED"/>
</linearGradient>
</defs>
</svg>
